<svg xmlns="http://www.w3.org/2000/svg" viewBox="0 0 932.51 268.45"><g id="Layer_2" data-name="Layer 2"><rect y="260.02" width="118.1" height="8.44"/><polygon points="76.67 232.72 85.1 232.72 85.1 224.29 85.1 37.71 76.67 37.71 76.67 224.29 41.43 224.29 41.43 37.71 33 37.71 33 224.29 33 232.72 41.43 232.72 76.67 232.72"/><rect x="54.83" width="8.44" height="212.87"/><polygon points="96.76 246.12 105.2 246.12 105.2 237.69 105.2 66.49 96.76 66.49 96.76 237.69 21.34 237.69 21.34 66.49 12.9 66.49 12.9 237.69 12.9 246.12 21.34 246.12 96.76 246.12"/><path d="M521.73,127.2c5-7.83,10.35-15.52,15.09-23.53,6.48-11,12.52-22.17,18.78-33.25,2.13-3.79,3.7-8.16,6.64-11.17,7.39-7.59,13-8.37,20.36.78,4.11,5.09.57,10.14-2.15,14-8.69,12.39-18.12,24.26-27.17,36.41-3.74,5-7.29,10.18-10.74,15.4a3.77,3.77,0,0,0,.18,3.31q17.16,27.45,34.49,54.8c3.58,5.68,7.6,11.14,10.5,17.15,2.74,5.67-2.36,12.12-8.57,13-8.34,1.15-13.54-2.79-17-9.47-7.64-14.69-14.93-29.57-22.45-44.33-2.6-5.1-5.46-10.08-8.21-15.11-7.66,4-11.24,14.08-10.43,22.54,1.26,13,1.27,26.26,1.12,39.39,0,3.86-3.08,6.9-7.76,6.85-2.5,0-5,.06-7.5,0-5.3-.13-9.17-3.6-9-9,.33-11.62,1.15-23.21,1.7-34.82.24-5,.44-10,.44-15,0-19.5,0-39-.34-58.49-.2-10.44-1.48-20.87-1.8-31.31-.29-9.12,7.94-14,16.36-10.47,9.06,3.81,8.89,4.77,8.49,14.05C522,86.38,521,103.8,520.2,121.23c-.09,1.78,0,3.57,0,5.35Z"/><path d="M180.76,213.73c-11.54,1.6-21.69-1.52-29.83-9.63-10.58-10.54-12.5-24-10.39-37.95.76-5,3.69-10.45,10-11.52,4.46-.76,8.73-.78,12.06,3.49,3.58,4.59,2.89,9.56,1.38,14.18-3.71,11.43,2,21.26,13.64,24.63,5.52,1.6,10.78,2.33,15.14-.77a36,36,0,0,0,9.86-11.43c5.84-10.29.16-26.59-10-32.54-12.14-7.09-24.19-14.44-35.66-22.55-8.12-5.74-12.61-14.74-14-24.43-1.91-12.86-1.88-25.68,6.83-36.87a33.38,33.38,0,0,1,16.92-11.76c6.22-1.86,13-3.23,19.41-2.79,13,.89,25.13,5.38,31.75,17.3,6,10.86,9.44,22.91,3.61,35.33-4,8.56-16.81,10.43-20.73,2.52-2-4.14-1.43-10.43-.1-15.21,2.1-7.56,0-18.1-6.69-21.31-9.07-4.36-22.32-1.43-26.83,8.45-8.3,18.21.06,29.46,14.45,39,9.47,6.26,19.82,11.27,28.85,18.07,9.41,7.09,15.4,16.76,16.1,29.22.63,11.07-1.36,21.4-7.53,30.57a32.22,32.22,0,0,1-18.22,13.56c-6.48,1.78-13.25,2.49-19.89,3.67Z"/><path d="M339.12,193.57c.93-4.12,2.16-8.2,2.73-12.37,1.23-8.87,2.12-17.79,3.15-26.7,1.66-14.32,3.09-28.67,5.11-42.94.56-3.91,2.69-7.76,7.27-8.93,4.79-1.22,9.89-2.06,13.11,2.65a22.69,22.69,0,0,1,3.45,9.94c1.34,11.88,1.94,23.84,3.29,35.72,1.39,12.16,3.27,24.27,5.12,36.37.2,1.3,1.62,2.41,3.12,4.5,1.29-6.55,2.57-11.8,3.32-17.12,1.23-8.7,2.06-17.47,3.15-26.19,1.59-12.63,3-25.28,5.1-37.83.48-2.94,1.19-6.89,5.49-8,4-1,8.28-1.94,11.17,1.4,3.93,4.52,3.29,10.22,1.88,15.66-2.12,8.22-4.45,16.39-6.59,24.61-1.53,5.9-3,11.83-4.27,17.78-1,4.82-1.75,9.7-2.62,14.55-1.74,9.72-3.13,19.53-5.45,29.12a13,13,0,0,1-6.15,7.51c-10,5-19.52-1-21.06-11.85-2-13.84-4.69-27.57-6.93-41.38-.6-3.74-.61-7.58-1.8-11.6-1.11,3.79-2.57,7.52-3.26,11.38-1,5.84-1.55,11.78-2.29,17.67-1.06,8.54-2,17.1-3.21,25.62-1,6.74-4.56,11.41-12,10.77-3.35-.29-6.86-.45-10-1.58-7.08-2.59-5.61-9.82-6.91-15.12-3.05-12.47-5-25.22-7.59-37.79-2.42-11.56-5.19-23-7.81-34.55-.8-3.52-2.1-7-2.3-10.58a12.06,12.06,0,0,1,11.23-13.08c5.27-.46,10.57,4.86,11.23,11.58.92,9.37,1.4,18.8,2.54,28.15.93,7.53,2.6,15,3.86,22.46.39,2.28.5,4.61.78,6.92q1.45,11.73,2.93,23.46Z"/><path d="M710.4,116.91c-2.94,7.2-6.06,12.9-7.61,19-3.56,14-6.87,28.11-9.23,42.35-1.21,7.28-.78,15,.14,22.39.54,4.34.39,7.72-2.79,10.58-4.19,3.77-9.41,3.67-14.09,2-4.46-1.59-5.67-6.22-5.53-10.63.19-6.31,1.35-12.61,1.27-18.91-.27-22.3-.92-44.59-1.36-66.89-.1-5.33,1-9.84,6.72-12.46,7.34-3.36,15.42,1,15.48,8.94,0,5.33,0,10.66,0,15.32,3-6.47,5.61-13.61,9.53-19.92,5.68-9.12,23.56-9.36,27.82-.6A58.33,58.33,0,0,1,736.58,127c.71,6.8-1.11,13.83-1.26,20.76-.3,14-.32,28-.23,42a61.8,61.8,0,0,0,1.46,10.78c.88,4.71-1.57,10.32-5.75,12.58-3.49,1.88-11.42,1.14-13.9-1.71a8.19,8.19,0,0,1-1.93-5.1c.39-12.12,1.55-24.23,1.48-36.34-.08-15.76-1-31.51-1.79-47.25C714.58,121.2,712.59,119.79,710.4,116.91Z"/><path d="M869.06,157.5c-1.28,10.5-1.77,21.18-4,31.47-2.34,10.52-7.38,19.52-18.7,23.92-14.86,5.76-34.14-1-39.58-15.63a93.7,93.7,0,0,1-5.13-24.63,170.19,170.19,0,0,1,0-30.95c1-9.56,2.4-19.35,7.45-27.94,5.53-9.39,22.16-14.38,31.8-12.2,10.4,2.35,18.18,7.42,21.63,16.84,3.11,8.53,4,17.92,5.37,27,.61,3.9.11,8,.11,12Zm-20.34-2.93c-1.53-8.34-3.42-19.5-5.67-30.58-.93-4.55-4.06-7.08-8.95-6.83-4.51.24-7.37,2.39-8.19,7-1.43,8.09-3.76,16.11-4.28,24.25-.92,14.71,0,29.4,4.39,43.66,2.21,7.1,9.44,9.39,14.24,3.91a22.72,22.72,0,0,0,5.07-10.7C846.84,176.18,847.43,166.9,848.72,154.57Z"/><path d="M462.75,203.06c-8.61,16.18-31.86,12.64-37.51,3-3-5.19-5.7-11.32-6.08-17.19a79.61,79.61,0,0,1,2.28-24.94c2.2-8.39,8.47-13.9,17.14-17.09s16-1,24.47,3.37c0-11.11,1.91-21.69-2.62-31.67-2.94-6.46-11.11-6.56-15.13-.44-2.2,3.37-3.92,7.06-5.87,10.59-2.44,4.42-6.45,4.59-10.35,3.08-4.48-1.74-7.56-7.85-6.74-11.59,2.21-10.09,11.6-16.37,20.51-17.68,6.78-1,13.21-1.6,20.1,0,9.17,2.16,14.92,7.43,17.74,16,4.16,12.61,2.23,25.38,1,38.28-.95,10,.13,20.15.79,30.21.38,5.71,1.95,11.33,2.57,17,.55,5-2.07,9.06-5.69,9.82-7.15,1.51-11.82-.6-13.88-6.09A37.17,37.17,0,0,0,462.75,203.06Zm.65-30c-.63-2-.91-6.21-3.07-8.89-2.36-2.93-6.41-6.09-9.79-6.15-3.05,0-7.39,3.25-9.06,6.24-5,8.9-4.45,18.88-2.58,28.51.59,3.06,3.37,6.51,6.12,8.06,1.66.93,6-.67,7.73-2.47C459,191.93,462.55,184,463.4,173.08Z"/><path d="M637,202.18c-4.61,11.24-13.39,12.58-23.33,11.8-7-.55-14.35-6.33-17.29-13.29-4.69-11.11-4.16-23-1.73-33.79,3.29-14.6,13.05-21.24,28.14-21.61,3.72-.09,7.48,2.06,11.23,3.15,1,.3,2.11.49,3.67.85.55-11.2,1.62-22-4-31.82-3.09-5.42-8.7-5.71-12.79-.83a30.69,30.69,0,0,0-4.79,8.36c-2.33,5.85-7.78,9-12.62,6.91-5.84-2.55-8.66-9.31-6-14.79,4.15-8.43,10.79-13.26,20.27-14.65,6.78-1,13.22-1.48,20.09.14,9.31,2.19,15.77,10.07,17.76,17.26,2.73,9.84,2.24,19.64,1,29.87-1.58,12.8-.74,25.93-.41,38.9.14,5.56,1.91,11.06,2.36,16.63.3,3.62-.27,7.48-4.88,8.57-5.8,1.38-10.65-.27-12.89-4.32C639.65,207.36,638.57,205.14,637,202.18ZM611,182.8c1,3.86,1.69,8.47,3.29,12.74,2.41,6.43,7.16,7.76,12.41,3.26,8-6.87,13.73-22.69,9.05-33.51a10.62,10.62,0,0,0-17.42-3.62C612.53,167.23,612.51,174.83,611,182.8Z"/><path d="M257.6,165.18c.9,6.11,1.6,11.6,2.56,17,1,5.77,2.15,11.86,7.94,14.76a14.39,14.39,0,0,0,9.55,1.17c3.27-.94,6.54-3.49,5.57-8.15a16.41,16.41,0,0,1-.21-3c-.09-5.38,1.86-7.76,6.49-7.95,5.89-.23,8,1.88,8.76,7.49,2.11,15.31-10.85,28.54-25.57,27.59-8.39-.53-16.07-1.17-22.68-7.25-7.07-6.51-9.86-14.89-11.11-23.74a173.11,173.11,0,0,1,0-50.26c1.72-11.45,5.25-22.18,17-28.38,11.05-5.85,29.34-4.07,36.19,6.14,10.21,15.23,8.39,39.1-8,50.59C279.23,164.66,273.44,167.16,257.6,165.18Zm23.47-29.77c-.21-4,0-6.54-.55-8.92-1.19-5-4.39-9.2-8.71-9.31-5-.12-8.88,2-10.67,6.31-3.36,8-3.18,16.45-3,24.85,0,1.26,1.2,3.27,2.27,3.61,8.72,2.76,15.73-.09,19.35-8.26C281,140.8,280.81,137.23,281.07,135.41Z"/><path d="M771.57,103c4.81,0,8.74,0,12.67,0,5.78.08,7.71,2.45,7.43,9-.21,5-1.78,6.23-7.54,6-12.29-.48-12.36-.48-12.37,11.88,0,17,0,34,.3,51A44,44,0,0,0,774.35,193c.45,1.45,2.63,2.8,4.28,3.26.79.22,2.56-1.57,3.22-2.8a12.86,12.86,0,0,0,1.88-6c-.12-4.16,1.72-6.27,5.6-6.68s5.64,2.57,6.46,5.53c3.46,12.48-8,29.37-20.76,27.69-3.88-.52-7.81-.82-11.63-1.65-5.65-1.23-7.76-6.46-8.66-10.85-2-9.49-3-19-1.49-29.07,1.68-11.44.81-23.27,1-34.93a135.94,135.94,0,0,0-.28-15c-.14-1.53-2-3.88-3.43-4.13-9.67-1.72-10.14-2.22-8.17-12.74a69.11,69.11,0,0,0,9-2.77A5.06,5.06,0,0,0,753.83,99c-.3-6.45-1.17-12.87-1.6-19.31-.36-5.36,2.57-10.27,6.42-11.4,5.47-1.6,12,.22,13.88,5.4,1.5,4.06.89,9,.7,13.54C773,92.16,772.23,97.06,771.57,103Z"/><path d="M902.72,120.93c2.75-5.67,4.67-10.23,7.11-14.49,4.35-7.62,13.22-7.93,18.84-4.08s3.72,9.11,3,13.52c-.42,2.45-4.37,5.22-7.26,6.09-3.76,1.14-5.66,3-7.28,6.4-4.8,10-7.56,20.46-10.15,31.15-3.49,14.45-5.39,28.86-3.9,43.72.73,7.23-2.67,10.51-9.87,10.73-8.09.24-12.92-3.32-12.75-10.15.31-13.46,1.53-26.91,1.5-40.36,0-15.78-.93-31.57-1.64-47.34A12.33,12.33,0,0,1,889,103.45c4.46-1.5,12.12,2.3,12.84,10.87C902,116.15,902.34,118,902.72,120.93Z"/></g></svg>